%TF.GenerationSoftware,KiCad,Pcbnew,10.0.0*%
%TF.CreationDate,2026-08-14T07:50:00+02:00*%
%TF.ProjectId,glass-memory,676c6173-732d-46d6-956d-6f72792e6b69,rev?*%
%TF.SameCoordinates,Original*%
%TF.FileFunction,Legend,Bot*%
%TF.FilePolarity,Positive*%
%FSLAX46Y46*%
G04 Gerber Fmt 4.6, Leading zero omitted, Abs format (unit mm)*
G04 Created by KiCad (PCBNEW 10.0.0) date 2026-08-14 07:50:00*
%MOMM*%
%LPD*%
G01*
G04 APERTURE LIST*
G04 Aperture macros list*
%AMRoundRect*
0 Rectangle with rounded corners*
0 $1 Rounding radius*
0 $2 $3 $4 $5 $6 $7 $8 $9 X,Y pos of 4 corners*
0 Add a 4 corners polygon primitive as box body*
4,1,4,$2,$3,$4,$5,$6,$7,$8,$9,$2,$3,0*
0 Add four circle primitives for the rounded corners*
1,1,$1+$1,$2,$3*
1,1,$1+$1,$4,$5*
1,1,$1+$1,$6,$7*
1,1,$1+$1,$8,$9*
0 Add four rect primitives between the rounded corners*
20,1,$1+$1,$2,$3,$4,$5,0*
20,1,$1+$1,$4,$5,$6,$7,0*
20,1,$1+$1,$6,$7,$8,$9,0*
20,1,$1+$1,$8,$9,$2,$3,0*%
G04 Aperture macros list end*
%ADD10C,0.250000*%
%ADD11C,1.000000*%
%ADD12RoundRect,0.900000X0.370000X0.000010X-0.370000X0.000010X-0.370000X-0.000010X0.370000X-0.000010X0*%
%ADD13RoundRect,0.900000X0.000010X0.000010X-0.000010X0.000010X-0.000010X-0.000010X0.000010X-0.000010X0*%
%ADD14C,3.200000*%
%ADD15C,0.800000*%
%ADD16O,2.000000X1.600000*%
%ADD17RoundRect,0.250000X1.050000X-1.050000X1.050000X1.050000X-1.050000X1.050000X-1.050000X-1.050000X0*%
%ADD18C,2.600000*%
%ADD19R,1.700000X1.700000*%
%ADD20C,1.700000*%
%ADD21RoundRect,0.250000X-1.050000X-1.050000X1.050000X-1.050000X1.050000X1.050000X-1.050000X1.050000X0*%
G04 APERTURE END LIST*
D10*
X92359336Y-107522350D02*
X92359336Y-105522350D01*
X92359336Y-106284254D02*
X92168860Y-106189016D01*
X92168860Y-106189016D02*
X91787907Y-106189016D01*
X91787907Y-106189016D02*
X91597431Y-106284254D01*
X91597431Y-106284254D02*
X91502193Y-106379492D01*
X91502193Y-106379492D02*
X91406955Y-106569969D01*
X91406955Y-106569969D02*
X91406955Y-107141397D01*
X91406955Y-107141397D02*
X91502193Y-107331873D01*
X91502193Y-107331873D02*
X91597431Y-107427112D01*
X91597431Y-107427112D02*
X91787907Y-107522350D01*
X91787907Y-107522350D02*
X92168860Y-107522350D01*
X92168860Y-107522350D02*
X92359336Y-107427112D01*
X90740288Y-106189016D02*
X90264098Y-107522350D01*
X89787907Y-106189016D02*
X90264098Y-107522350D01*
X90264098Y-107522350D02*
X90454574Y-107998540D01*
X90454574Y-107998540D02*
X90549812Y-108093778D01*
X90549812Y-108093778D02*
X90740288Y-108189016D01*
X86549811Y-107522350D02*
X87502192Y-107522350D01*
X87502192Y-107522350D02*
X87502192Y-105522350D01*
X85883144Y-107522350D02*
X85883144Y-106189016D01*
X85883144Y-105522350D02*
X85978382Y-105617588D01*
X85978382Y-105617588D02*
X85883144Y-105712826D01*
X85883144Y-105712826D02*
X85787906Y-105617588D01*
X85787906Y-105617588D02*
X85883144Y-105522350D01*
X85883144Y-105522350D02*
X85883144Y-105712826D01*
X84930763Y-106189016D02*
X84930763Y-107522350D01*
X84930763Y-106379492D02*
X84835525Y-106284254D01*
X84835525Y-106284254D02*
X84645049Y-106189016D01*
X84645049Y-106189016D02*
X84359334Y-106189016D01*
X84359334Y-106189016D02*
X84168858Y-106284254D01*
X84168858Y-106284254D02*
X84073620Y-106474731D01*
X84073620Y-106474731D02*
X84073620Y-107522350D01*
X82264096Y-107522350D02*
X82264096Y-106474731D01*
X82264096Y-106474731D02*
X82359334Y-106284254D01*
X82359334Y-106284254D02*
X82549810Y-106189016D01*
X82549810Y-106189016D02*
X82930763Y-106189016D01*
X82930763Y-106189016D02*
X83121239Y-106284254D01*
X82264096Y-107427112D02*
X82454572Y-107522350D01*
X82454572Y-107522350D02*
X82930763Y-107522350D01*
X82930763Y-107522350D02*
X83121239Y-107427112D01*
X83121239Y-107427112D02*
X83216477Y-107236635D01*
X83216477Y-107236635D02*
X83216477Y-107046159D01*
X83216477Y-107046159D02*
X83121239Y-106855683D01*
X83121239Y-106855683D02*
X82930763Y-106760445D01*
X82930763Y-106760445D02*
X82454572Y-106760445D01*
X82454572Y-106760445D02*
X82264096Y-106665207D01*
X78835524Y-107522350D02*
X79787905Y-107522350D01*
X79787905Y-107522350D02*
X79787905Y-105522350D01*
X77883143Y-107522350D02*
X78073619Y-107427112D01*
X78073619Y-107427112D02*
X78168857Y-107331873D01*
X78168857Y-107331873D02*
X78264095Y-107141397D01*
X78264095Y-107141397D02*
X78264095Y-106569969D01*
X78264095Y-106569969D02*
X78168857Y-106379492D01*
X78168857Y-106379492D02*
X78073619Y-106284254D01*
X78073619Y-106284254D02*
X77883143Y-106189016D01*
X77883143Y-106189016D02*
X77597428Y-106189016D01*
X77597428Y-106189016D02*
X77406952Y-106284254D01*
X77406952Y-106284254D02*
X77311714Y-106379492D01*
X77311714Y-106379492D02*
X77216476Y-106569969D01*
X77216476Y-106569969D02*
X77216476Y-107141397D01*
X77216476Y-107141397D02*
X77311714Y-107331873D01*
X77311714Y-107331873D02*
X77406952Y-107427112D01*
X77406952Y-107427112D02*
X77597428Y-107522350D01*
X77597428Y-107522350D02*
X77883143Y-107522350D01*
X76359333Y-106189016D02*
X76359333Y-108189016D01*
X76359333Y-106284254D02*
X76168857Y-106189016D01*
X76168857Y-106189016D02*
X75787904Y-106189016D01*
X75787904Y-106189016D02*
X75597428Y-106284254D01*
X75597428Y-106284254D02*
X75502190Y-106379492D01*
X75502190Y-106379492D02*
X75406952Y-106569969D01*
X75406952Y-106569969D02*
X75406952Y-107141397D01*
X75406952Y-107141397D02*
X75502190Y-107331873D01*
X75502190Y-107331873D02*
X75597428Y-107427112D01*
X75597428Y-107427112D02*
X75787904Y-107522350D01*
X75787904Y-107522350D02*
X76168857Y-107522350D01*
X76168857Y-107522350D02*
X76359333Y-107427112D01*
X73787904Y-107427112D02*
X73978380Y-107522350D01*
X73978380Y-107522350D02*
X74359333Y-107522350D01*
X74359333Y-107522350D02*
X74549809Y-107427112D01*
X74549809Y-107427112D02*
X74645047Y-107236635D01*
X74645047Y-107236635D02*
X74645047Y-106474731D01*
X74645047Y-106474731D02*
X74549809Y-106284254D01*
X74549809Y-106284254D02*
X74359333Y-106189016D01*
X74359333Y-106189016D02*
X73978380Y-106189016D01*
X73978380Y-106189016D02*
X73787904Y-106284254D01*
X73787904Y-106284254D02*
X73692666Y-106474731D01*
X73692666Y-106474731D02*
X73692666Y-106665207D01*
X73692666Y-106665207D02*
X74645047Y-106855683D01*
X72930761Y-107427112D02*
X72740285Y-107522350D01*
X72740285Y-107522350D02*
X72359333Y-107522350D01*
X72359333Y-107522350D02*
X72168856Y-107427112D01*
X72168856Y-107427112D02*
X72073618Y-107236635D01*
X72073618Y-107236635D02*
X72073618Y-107141397D01*
X72073618Y-107141397D02*
X72168856Y-106950921D01*
X72168856Y-106950921D02*
X72359333Y-106855683D01*
X72359333Y-106855683D02*
X72645047Y-106855683D01*
X72645047Y-106855683D02*
X72835523Y-106760445D01*
X72835523Y-106760445D02*
X72930761Y-106569969D01*
X72930761Y-106569969D02*
X72930761Y-106474731D01*
X72930761Y-106474731D02*
X72835523Y-106284254D01*
X72835523Y-106284254D02*
X72645047Y-106189016D01*
X72645047Y-106189016D02*
X72359333Y-106189016D01*
X72359333Y-106189016D02*
X72168856Y-106284254D01*
X92454574Y-110647000D02*
X92168860Y-110742238D01*
X92168860Y-110742238D02*
X91692669Y-110742238D01*
X91692669Y-110742238D02*
X91502193Y-110647000D01*
X91502193Y-110647000D02*
X91406955Y-110551761D01*
X91406955Y-110551761D02*
X91311717Y-110361285D01*
X91311717Y-110361285D02*
X91311717Y-110170809D01*
X91311717Y-110170809D02*
X91406955Y-109980333D01*
X91406955Y-109980333D02*
X91502193Y-109885095D01*
X91502193Y-109885095D02*
X91692669Y-109789857D01*
X91692669Y-109789857D02*
X92073622Y-109694619D01*
X92073622Y-109694619D02*
X92264098Y-109599380D01*
X92264098Y-109599380D02*
X92359336Y-109504142D01*
X92359336Y-109504142D02*
X92454574Y-109313666D01*
X92454574Y-109313666D02*
X92454574Y-109123190D01*
X92454574Y-109123190D02*
X92359336Y-108932714D01*
X92359336Y-108932714D02*
X92264098Y-108837476D01*
X92264098Y-108837476D02*
X92073622Y-108742238D01*
X92073622Y-108742238D02*
X91597431Y-108742238D01*
X91597431Y-108742238D02*
X91311717Y-108837476D01*
X89597431Y-110647000D02*
X89787907Y-110742238D01*
X89787907Y-110742238D02*
X90168860Y-110742238D01*
X90168860Y-110742238D02*
X90359336Y-110647000D01*
X90359336Y-110647000D02*
X90454574Y-110551761D01*
X90454574Y-110551761D02*
X90549812Y-110361285D01*
X90549812Y-110361285D02*
X90549812Y-109789857D01*
X90549812Y-109789857D02*
X90454574Y-109599380D01*
X90454574Y-109599380D02*
X90359336Y-109504142D01*
X90359336Y-109504142D02*
X90168860Y-109408904D01*
X90168860Y-109408904D02*
X89787907Y-109408904D01*
X89787907Y-109408904D02*
X89597431Y-109504142D01*
X88740288Y-110742238D02*
X88740288Y-108742238D01*
X87883145Y-110742238D02*
X87883145Y-109694619D01*
X87883145Y-109694619D02*
X87978383Y-109504142D01*
X87978383Y-109504142D02*
X88168859Y-109408904D01*
X88168859Y-109408904D02*
X88454574Y-109408904D01*
X88454574Y-109408904D02*
X88645050Y-109504142D01*
X88645050Y-109504142D02*
X88740288Y-109599380D01*
X86645050Y-110742238D02*
X86835526Y-110647000D01*
X86835526Y-110647000D02*
X86930764Y-110551761D01*
X86930764Y-110551761D02*
X87026002Y-110361285D01*
X87026002Y-110361285D02*
X87026002Y-109789857D01*
X87026002Y-109789857D02*
X86930764Y-109599380D01*
X86930764Y-109599380D02*
X86835526Y-109504142D01*
X86835526Y-109504142D02*
X86645050Y-109408904D01*
X86645050Y-109408904D02*
X86359335Y-109408904D01*
X86359335Y-109408904D02*
X86168859Y-109504142D01*
X86168859Y-109504142D02*
X86073621Y-109599380D01*
X86073621Y-109599380D02*
X85978383Y-109789857D01*
X85978383Y-109789857D02*
X85978383Y-110361285D01*
X85978383Y-110361285D02*
X86073621Y-110551761D01*
X86073621Y-110551761D02*
X86168859Y-110647000D01*
X86168859Y-110647000D02*
X86359335Y-110742238D01*
X86359335Y-110742238D02*
X86645050Y-110742238D01*
X84835526Y-110742238D02*
X85026002Y-110647000D01*
X85026002Y-110647000D02*
X85121240Y-110551761D01*
X85121240Y-110551761D02*
X85216478Y-110361285D01*
X85216478Y-110361285D02*
X85216478Y-109789857D01*
X85216478Y-109789857D02*
X85121240Y-109599380D01*
X85121240Y-109599380D02*
X85026002Y-109504142D01*
X85026002Y-109504142D02*
X84835526Y-109408904D01*
X84835526Y-109408904D02*
X84549811Y-109408904D01*
X84549811Y-109408904D02*
X84359335Y-109504142D01*
X84359335Y-109504142D02*
X84264097Y-109599380D01*
X84264097Y-109599380D02*
X84168859Y-109789857D01*
X84168859Y-109789857D02*
X84168859Y-110361285D01*
X84168859Y-110361285D02*
X84264097Y-110551761D01*
X84264097Y-110551761D02*
X84359335Y-110647000D01*
X84359335Y-110647000D02*
X84549811Y-110742238D01*
X84549811Y-110742238D02*
X84835526Y-110742238D01*
X83026002Y-110742238D02*
X83216478Y-110647000D01*
X83216478Y-110647000D02*
X83311716Y-110456523D01*
X83311716Y-110456523D02*
X83311716Y-108742238D01*
X80454573Y-110742238D02*
X80645049Y-110647000D01*
X80645049Y-110647000D02*
X80740287Y-110551761D01*
X80740287Y-110551761D02*
X80835525Y-110361285D01*
X80835525Y-110361285D02*
X80835525Y-109789857D01*
X80835525Y-109789857D02*
X80740287Y-109599380D01*
X80740287Y-109599380D02*
X80645049Y-109504142D01*
X80645049Y-109504142D02*
X80454573Y-109408904D01*
X80454573Y-109408904D02*
X80168858Y-109408904D01*
X80168858Y-109408904D02*
X79978382Y-109504142D01*
X79978382Y-109504142D02*
X79883144Y-109599380D01*
X79883144Y-109599380D02*
X79787906Y-109789857D01*
X79787906Y-109789857D02*
X79787906Y-110361285D01*
X79787906Y-110361285D02*
X79883144Y-110551761D01*
X79883144Y-110551761D02*
X79978382Y-110647000D01*
X79978382Y-110647000D02*
X80168858Y-110742238D01*
X80168858Y-110742238D02*
X80454573Y-110742238D01*
X79216477Y-109408904D02*
X78454573Y-109408904D01*
X78930763Y-110742238D02*
X78930763Y-109027952D01*
X78930763Y-109027952D02*
X78835525Y-108837476D01*
X78835525Y-108837476D02*
X78645049Y-108742238D01*
X78645049Y-108742238D02*
X78454573Y-108742238D01*
X76549810Y-108742238D02*
X75406953Y-108742238D01*
X75978382Y-110742238D02*
X75978382Y-108742238D01*
X74454572Y-110742238D02*
X74645048Y-110647000D01*
X74645048Y-110647000D02*
X74740286Y-110551761D01*
X74740286Y-110551761D02*
X74835524Y-110361285D01*
X74835524Y-110361285D02*
X74835524Y-109789857D01*
X74835524Y-109789857D02*
X74740286Y-109599380D01*
X74740286Y-109599380D02*
X74645048Y-109504142D01*
X74645048Y-109504142D02*
X74454572Y-109408904D01*
X74454572Y-109408904D02*
X74168857Y-109408904D01*
X74168857Y-109408904D02*
X73978381Y-109504142D01*
X73978381Y-109504142D02*
X73883143Y-109599380D01*
X73883143Y-109599380D02*
X73787905Y-109789857D01*
X73787905Y-109789857D02*
X73787905Y-110361285D01*
X73787905Y-110361285D02*
X73883143Y-110551761D01*
X73883143Y-110551761D02*
X73978381Y-110647000D01*
X73978381Y-110647000D02*
X74168857Y-110742238D01*
X74168857Y-110742238D02*
X74454572Y-110742238D01*
X72930762Y-110742238D02*
X72930762Y-109408904D01*
X72930762Y-109599380D02*
X72835524Y-109504142D01*
X72835524Y-109504142D02*
X72645048Y-109408904D01*
X72645048Y-109408904D02*
X72359333Y-109408904D01*
X72359333Y-109408904D02*
X72168857Y-109504142D01*
X72168857Y-109504142D02*
X72073619Y-109694619D01*
X72073619Y-109694619D02*
X72073619Y-110742238D01*
X72073619Y-109694619D02*
X71978381Y-109504142D01*
X71978381Y-109504142D02*
X71787905Y-109408904D01*
X71787905Y-109408904D02*
X71502191Y-109408904D01*
X71502191Y-109408904D02*
X71311714Y-109504142D01*
X71311714Y-109504142D02*
X71216476Y-109694619D01*
X71216476Y-109694619D02*
X71216476Y-110742238D01*
X69978381Y-110742238D02*
X70168857Y-110647000D01*
X70168857Y-110647000D02*
X70264095Y-110551761D01*
X70264095Y-110551761D02*
X70359333Y-110361285D01*
X70359333Y-110361285D02*
X70359333Y-109789857D01*
X70359333Y-109789857D02*
X70264095Y-109599380D01*
X70264095Y-109599380D02*
X70168857Y-109504142D01*
X70168857Y-109504142D02*
X69978381Y-109408904D01*
X69978381Y-109408904D02*
X69692666Y-109408904D01*
X69692666Y-109408904D02*
X69502190Y-109504142D01*
X69502190Y-109504142D02*
X69406952Y-109599380D01*
X69406952Y-109599380D02*
X69311714Y-109789857D01*
X69311714Y-109789857D02*
X69311714Y-110361285D01*
X69311714Y-110361285D02*
X69406952Y-110551761D01*
X69406952Y-110551761D02*
X69502190Y-110647000D01*
X69502190Y-110647000D02*
X69692666Y-110742238D01*
X69692666Y-110742238D02*
X69978381Y-110742238D01*
X68454571Y-110742238D02*
X68454571Y-109408904D01*
X68454571Y-109789857D02*
X68359333Y-109599380D01*
X68359333Y-109599380D02*
X68264095Y-109504142D01*
X68264095Y-109504142D02*
X68073619Y-109408904D01*
X68073619Y-109408904D02*
X67883142Y-109408904D01*
X67216476Y-110742238D02*
X67216476Y-109408904D01*
X67216476Y-109789857D02*
X67121238Y-109599380D01*
X67121238Y-109599380D02*
X67026000Y-109504142D01*
X67026000Y-109504142D02*
X66835524Y-109408904D01*
X66835524Y-109408904D02*
X66645047Y-109408904D01*
X65692667Y-110742238D02*
X65883143Y-110647000D01*
X65883143Y-110647000D02*
X65978381Y-110551761D01*
X65978381Y-110551761D02*
X66073619Y-110361285D01*
X66073619Y-110361285D02*
X66073619Y-109789857D01*
X66073619Y-109789857D02*
X65978381Y-109599380D01*
X65978381Y-109599380D02*
X65883143Y-109504142D01*
X65883143Y-109504142D02*
X65692667Y-109408904D01*
X65692667Y-109408904D02*
X65406952Y-109408904D01*
X65406952Y-109408904D02*
X65216476Y-109504142D01*
X65216476Y-109504142D02*
X65121238Y-109599380D01*
X65121238Y-109599380D02*
X65026000Y-109789857D01*
X65026000Y-109789857D02*
X65026000Y-110361285D01*
X65026000Y-110361285D02*
X65121238Y-110551761D01*
X65121238Y-110551761D02*
X65216476Y-110647000D01*
X65216476Y-110647000D02*
X65406952Y-110742238D01*
X65406952Y-110742238D02*
X65692667Y-110742238D01*
X64359333Y-109408904D02*
X63978381Y-110742238D01*
X63978381Y-110742238D02*
X63597428Y-109789857D01*
X63597428Y-109789857D02*
X63216476Y-110742238D01*
X63216476Y-110742238D02*
X62835524Y-109408904D01*
X61978381Y-108742238D02*
X62168857Y-109123190D01*
X61216476Y-110647000D02*
X61026000Y-110742238D01*
X61026000Y-110742238D02*
X60645048Y-110742238D01*
X60645048Y-110742238D02*
X60454571Y-110647000D01*
X60454571Y-110647000D02*
X60359333Y-110456523D01*
X60359333Y-110456523D02*
X60359333Y-110361285D01*
X60359333Y-110361285D02*
X60454571Y-110170809D01*
X60454571Y-110170809D02*
X60645048Y-110075571D01*
X60645048Y-110075571D02*
X60930762Y-110075571D01*
X60930762Y-110075571D02*
X61121238Y-109980333D01*
X61121238Y-109980333D02*
X61216476Y-109789857D01*
X61216476Y-109789857D02*
X61216476Y-109694619D01*
X61216476Y-109694619D02*
X61121238Y-109504142D01*
X61121238Y-109504142D02*
X60930762Y-109408904D01*
X60930762Y-109408904D02*
X60645048Y-109408904D01*
X60645048Y-109408904D02*
X60454571Y-109504142D01*
X58073618Y-110170809D02*
X57121237Y-110170809D01*
X58264094Y-110742238D02*
X57597428Y-108742238D01*
X57597428Y-108742238D02*
X56930761Y-110742238D01*
X56264094Y-110742238D02*
X56264094Y-108742238D01*
D11*
X87870677Y-52789764D02*
X88442106Y-52504050D01*
X88442106Y-52504050D02*
X89299248Y-52504050D01*
X89299248Y-52504050D02*
X90156391Y-52789764D01*
X90156391Y-52789764D02*
X90727820Y-53361193D01*
X90727820Y-53361193D02*
X91013534Y-53932621D01*
X91013534Y-53932621D02*
X91299248Y-55075478D01*
X91299248Y-55075478D02*
X91299248Y-55932621D01*
X91299248Y-55932621D02*
X91013534Y-57075478D01*
X91013534Y-57075478D02*
X90727820Y-57646907D01*
X90727820Y-57646907D02*
X90156391Y-58218336D01*
X90156391Y-58218336D02*
X89299248Y-58504050D01*
X89299248Y-58504050D02*
X88727820Y-58504050D01*
X88727820Y-58504050D02*
X87870677Y-58218336D01*
X87870677Y-58218336D02*
X87584963Y-57932621D01*
X87584963Y-57932621D02*
X87584963Y-55932621D01*
X87584963Y-55932621D02*
X88727820Y-55932621D01*
X84156391Y-58504050D02*
X84727820Y-58218336D01*
X84727820Y-58218336D02*
X85013534Y-57646907D01*
X85013534Y-57646907D02*
X85013534Y-52504050D01*
X79299249Y-58504050D02*
X79299249Y-55361193D01*
X79299249Y-55361193D02*
X79584963Y-54789764D01*
X79584963Y-54789764D02*
X80156391Y-54504050D01*
X80156391Y-54504050D02*
X81299249Y-54504050D01*
X81299249Y-54504050D02*
X81870677Y-54789764D01*
X79299249Y-58218336D02*
X79870677Y-58504050D01*
X79870677Y-58504050D02*
X81299249Y-58504050D01*
X81299249Y-58504050D02*
X81870677Y-58218336D01*
X81870677Y-58218336D02*
X82156391Y-57646907D01*
X82156391Y-57646907D02*
X82156391Y-57075478D01*
X82156391Y-57075478D02*
X81870677Y-56504050D01*
X81870677Y-56504050D02*
X81299249Y-56218336D01*
X81299249Y-56218336D02*
X79870677Y-56218336D01*
X79870677Y-56218336D02*
X79299249Y-55932621D01*
X76727820Y-58218336D02*
X76156392Y-58504050D01*
X76156392Y-58504050D02*
X75013535Y-58504050D01*
X75013535Y-58504050D02*
X74442106Y-58218336D01*
X74442106Y-58218336D02*
X74156392Y-57646907D01*
X74156392Y-57646907D02*
X74156392Y-57361193D01*
X74156392Y-57361193D02*
X74442106Y-56789764D01*
X74442106Y-56789764D02*
X75013535Y-56504050D01*
X75013535Y-56504050D02*
X75870678Y-56504050D01*
X75870678Y-56504050D02*
X76442106Y-56218336D01*
X76442106Y-56218336D02*
X76727820Y-55646907D01*
X76727820Y-55646907D02*
X76727820Y-55361193D01*
X76727820Y-55361193D02*
X76442106Y-54789764D01*
X76442106Y-54789764D02*
X75870678Y-54504050D01*
X75870678Y-54504050D02*
X75013535Y-54504050D01*
X75013535Y-54504050D02*
X74442106Y-54789764D01*
X71870677Y-58218336D02*
X71299249Y-58504050D01*
X71299249Y-58504050D02*
X70156392Y-58504050D01*
X70156392Y-58504050D02*
X69584963Y-58218336D01*
X69584963Y-58218336D02*
X69299249Y-57646907D01*
X69299249Y-57646907D02*
X69299249Y-57361193D01*
X69299249Y-57361193D02*
X69584963Y-56789764D01*
X69584963Y-56789764D02*
X70156392Y-56504050D01*
X70156392Y-56504050D02*
X71013535Y-56504050D01*
X71013535Y-56504050D02*
X71584963Y-56218336D01*
X71584963Y-56218336D02*
X71870677Y-55646907D01*
X71870677Y-55646907D02*
X71870677Y-55361193D01*
X71870677Y-55361193D02*
X71584963Y-54789764D01*
X71584963Y-54789764D02*
X71013535Y-54504050D01*
X71013535Y-54504050D02*
X70156392Y-54504050D01*
X70156392Y-54504050D02*
X69584963Y-54789764D01*
X91013534Y-68163714D02*
X91013534Y-62163714D01*
X91013534Y-62163714D02*
X89013534Y-66449428D01*
X89013534Y-66449428D02*
X87013534Y-62163714D01*
X87013534Y-62163714D02*
X87013534Y-68163714D01*
X81870677Y-67878000D02*
X82442105Y-68163714D01*
X82442105Y-68163714D02*
X83584963Y-68163714D01*
X83584963Y-68163714D02*
X84156391Y-67878000D01*
X84156391Y-67878000D02*
X84442105Y-67306571D01*
X84442105Y-67306571D02*
X84442105Y-65020857D01*
X84442105Y-65020857D02*
X84156391Y-64449428D01*
X84156391Y-64449428D02*
X83584963Y-64163714D01*
X83584963Y-64163714D02*
X82442105Y-64163714D01*
X82442105Y-64163714D02*
X81870677Y-64449428D01*
X81870677Y-64449428D02*
X81584963Y-65020857D01*
X81584963Y-65020857D02*
X81584963Y-65592285D01*
X81584963Y-65592285D02*
X84442105Y-66163714D01*
X79013534Y-68163714D02*
X79013534Y-64163714D01*
X79013534Y-64735142D02*
X78727820Y-64449428D01*
X78727820Y-64449428D02*
X78156391Y-64163714D01*
X78156391Y-64163714D02*
X77299248Y-64163714D01*
X77299248Y-64163714D02*
X76727820Y-64449428D01*
X76727820Y-64449428D02*
X76442106Y-65020857D01*
X76442106Y-65020857D02*
X76442106Y-68163714D01*
X76442106Y-65020857D02*
X76156391Y-64449428D01*
X76156391Y-64449428D02*
X75584963Y-64163714D01*
X75584963Y-64163714D02*
X74727820Y-64163714D01*
X74727820Y-64163714D02*
X74156391Y-64449428D01*
X74156391Y-64449428D02*
X73870677Y-65020857D01*
X73870677Y-65020857D02*
X73870677Y-68163714D01*
X70156391Y-68163714D02*
X70727820Y-67878000D01*
X70727820Y-67878000D02*
X71013534Y-67592285D01*
X71013534Y-67592285D02*
X71299248Y-67020857D01*
X71299248Y-67020857D02*
X71299248Y-65306571D01*
X71299248Y-65306571D02*
X71013534Y-64735142D01*
X71013534Y-64735142D02*
X70727820Y-64449428D01*
X70727820Y-64449428D02*
X70156391Y-64163714D01*
X70156391Y-64163714D02*
X69299248Y-64163714D01*
X69299248Y-64163714D02*
X68727820Y-64449428D01*
X68727820Y-64449428D02*
X68442106Y-64735142D01*
X68442106Y-64735142D02*
X68156391Y-65306571D01*
X68156391Y-65306571D02*
X68156391Y-67020857D01*
X68156391Y-67020857D02*
X68442106Y-67592285D01*
X68442106Y-67592285D02*
X68727820Y-67878000D01*
X68727820Y-67878000D02*
X69299248Y-68163714D01*
X69299248Y-68163714D02*
X70156391Y-68163714D01*
X65584963Y-68163714D02*
X65584963Y-64163714D01*
X65584963Y-65306571D02*
X65299249Y-64735142D01*
X65299249Y-64735142D02*
X65013535Y-64449428D01*
X65013535Y-64449428D02*
X64442106Y-64163714D01*
X64442106Y-64163714D02*
X63870677Y-64163714D01*
X62442106Y-64163714D02*
X61013534Y-68163714D01*
X59584963Y-64163714D02*
X61013534Y-68163714D01*
X61013534Y-68163714D02*
X61584963Y-69592285D01*
X61584963Y-69592285D02*
X61870677Y-69878000D01*
X61870677Y-69878000D02*
X62442106Y-70163714D01*
%LPC*%
D12*
X79860000Y-101440000D03*
D13*
X79860000Y-98900000D03*
X79860000Y-96360000D03*
X79860000Y-93820000D03*
X79860000Y-91280000D03*
X79860000Y-88740000D03*
X79860000Y-86200000D03*
X79860000Y-83660000D03*
X79860000Y-81120000D03*
X79860000Y-78580000D03*
X79860000Y-76040000D03*
X79860000Y-73500000D03*
X64360000Y-73500000D03*
X64360000Y-76040000D03*
X64360000Y-78580000D03*
X64360000Y-81120000D03*
X64360000Y-83660000D03*
X64360000Y-86200000D03*
X64360000Y-88740000D03*
X64360000Y-91280000D03*
X64360000Y-93820000D03*
X64360000Y-96360000D03*
X64360000Y-98900000D03*
X64360000Y-101440000D03*
D14*
X53500000Y-48000000D03*
D15*
X107100000Y-83500000D03*
X100100000Y-83500000D03*
D16*
X97400000Y-81200000D03*
X98500000Y-85800000D03*
X102500000Y-85800000D03*
X105500000Y-85800000D03*
D14*
X107500000Y-122000000D03*
D17*
X99000000Y-117740000D03*
D18*
X99000000Y-112660000D03*
X99000000Y-107580000D03*
X99000000Y-102500000D03*
X99000000Y-97420000D03*
X99000000Y-92340000D03*
D15*
X107100000Y-61750000D03*
X100100000Y-61750000D03*
D16*
X97400000Y-59450000D03*
X98500000Y-64050000D03*
X102500000Y-64050000D03*
X105500000Y-64050000D03*
D14*
X107500000Y-48000000D03*
D19*
X55500000Y-84540000D03*
D20*
X55500000Y-82000000D03*
X55500000Y-79460000D03*
X55500000Y-76920000D03*
X55500000Y-74380000D03*
D14*
X53500000Y-122000000D03*
D15*
X107100000Y-69000000D03*
X100100000Y-69000000D03*
D16*
X97400000Y-66700000D03*
X98500000Y-71300000D03*
X102500000Y-71300000D03*
X105500000Y-71300000D03*
D15*
X107100000Y-76250000D03*
X100100000Y-76250000D03*
D16*
X97400000Y-73950000D03*
X98500000Y-78550000D03*
X102500000Y-78550000D03*
X105500000Y-78550000D03*
D15*
X107100000Y-54500000D03*
X100100000Y-54500000D03*
D16*
X97400000Y-52200000D03*
X98500000Y-56800000D03*
X102500000Y-56800000D03*
X105500000Y-56800000D03*
D21*
X61920000Y-118000000D03*
D18*
X67000000Y-118000000D03*
%LPD*%
M02*
