%TF.GenerationSoftware,KiCad,Pcbnew,10.0.0*%
%TF.CreationDate,2026-08-14T07:50:00+02:00*%
%TF.ProjectId,glass-memory,676c6173-732d-46d6-956d-6f72792e6b69,rev?*%
%TF.SameCoordinates,Original*%
%TF.FileFunction,Copper,L2,Bot*%
%TF.FilePolarity,Positive*%
%FSLAX46Y46*%
G04 Gerber Fmt 4.6, Leading zero omitted, Abs format (unit mm)*
G04 Created by KiCad (PCBNEW 10.0.0) date 2026-08-14 07:50:00*
%MOMM*%
%LPD*%
G01*
G04 APERTURE LIST*
G04 Aperture macros list*
%AMRoundRect*
0 Rectangle with rounded corners*
0 $1 Rounding radius*
0 $2 $3 $4 $5 $6 $7 $8 $9 X,Y pos of 4 corners*
0 Add a 4 corners polygon primitive as box body*
4,1,4,$2,$3,$4,$5,$6,$7,$8,$9,$2,$3,0*
0 Add four circle primitives for the rounded corners*
1,1,$1+$1,$2,$3*
1,1,$1+$1,$4,$5*
1,1,$1+$1,$6,$7*
1,1,$1+$1,$8,$9*
0 Add four rect primitives between the rounded corners*
20,1,$1+$1,$2,$3,$4,$5,0*
20,1,$1+$1,$4,$5,$6,$7,0*
20,1,$1+$1,$6,$7,$8,$9,0*
20,1,$1+$1,$8,$9,$2,$3,0*%
G04 Aperture macros list end*
%TA.AperFunction,ComponentPad*%
%ADD10RoundRect,0.900000X0.370000X0.000010X-0.370000X0.000010X-0.370000X-0.000010X0.370000X-0.000010X0*%
%TD*%
%TA.AperFunction,ComponentPad*%
%ADD11RoundRect,0.900000X0.000010X0.000010X-0.000010X0.000010X-0.000010X-0.000010X0.000010X-0.000010X0*%
%TD*%
%TA.AperFunction,ComponentPad*%
%ADD12O,2.000000X1.600000*%
%TD*%
%TA.AperFunction,ComponentPad*%
%ADD13RoundRect,0.250000X1.050000X-1.050000X1.050000X1.050000X-1.050000X1.050000X-1.050000X-1.050000X0*%
%TD*%
%TA.AperFunction,ComponentPad*%
%ADD14C,2.600000*%
%TD*%
%TA.AperFunction,ComponentPad*%
%ADD15R,1.700000X1.700000*%
%TD*%
%TA.AperFunction,ComponentPad*%
%ADD16C,1.700000*%
%TD*%
%TA.AperFunction,ComponentPad*%
%ADD17RoundRect,0.250000X-1.050000X-1.050000X1.050000X-1.050000X1.050000X1.050000X-1.050000X1.050000X0*%
%TD*%
%TA.AperFunction,Conductor*%
%ADD18C,0.200000*%
%TD*%
G04 APERTURE END LIST*
D10*
X79860000Y-101440000D03*
D11*
X79860000Y-98900000D03*
X79860000Y-96360000D03*
X79860000Y-93820000D03*
X79860000Y-91280000D03*
X79860000Y-88740000D03*
X79860000Y-86200000D03*
X79860000Y-83660000D03*
X79860000Y-81120000D03*
X79860000Y-78580000D03*
X79860000Y-76040000D03*
X79860000Y-73500000D03*
X64360000Y-73500000D03*
X64360000Y-76040000D03*
X64360000Y-78580000D03*
X64360000Y-81120000D03*
X64360000Y-83660000D03*
X64360000Y-86200000D03*
X64360000Y-88740000D03*
X64360000Y-91280000D03*
X64360000Y-93820000D03*
X64360000Y-96360000D03*
X64360000Y-98900000D03*
X64360000Y-101440000D03*
D12*
X97400000Y-81200000D03*
X98500000Y-85800000D03*
X102500000Y-85800000D03*
X105500000Y-85800000D03*
D13*
X99000000Y-117740000D03*
D14*
X99000000Y-112660000D03*
X99000000Y-107580000D03*
X99000000Y-102500000D03*
X99000000Y-97420000D03*
X99000000Y-92340000D03*
D12*
X97400000Y-59450000D03*
X98500000Y-64050000D03*
X102500000Y-64050000D03*
X105500000Y-64050000D03*
D15*
X55500000Y-84540000D03*
D16*
X55500000Y-82000000D03*
X55500000Y-79460000D03*
X55500000Y-76920000D03*
X55500000Y-74380000D03*
D12*
X97400000Y-66700000D03*
X98500000Y-71300000D03*
X102500000Y-71300000D03*
X105500000Y-71300000D03*
X97400000Y-73950000D03*
X98500000Y-78550000D03*
X102500000Y-78550000D03*
X105500000Y-78550000D03*
X97400000Y-52200000D03*
X98500000Y-56800000D03*
X102500000Y-56800000D03*
X105500000Y-56800000D03*
D17*
X61920000Y-118000000D03*
D14*
X67000000Y-118000000D03*
D18*
X92500000Y-79750000D02*
X92500000Y-75300000D01*
X92500000Y-82550000D02*
X93900000Y-81150000D01*
X93900000Y-66650000D02*
X92500000Y-65250000D01*
X93950000Y-73950000D02*
X93900000Y-73900000D01*
X89680000Y-93820000D02*
X79860000Y-93820000D01*
X92500000Y-58000000D02*
X93900000Y-59400000D01*
X92500000Y-68050000D02*
X93900000Y-66650000D01*
X92500000Y-75300000D02*
X93900000Y-73900000D01*
X92500000Y-72500000D02*
X92500000Y-68050000D01*
X97400000Y-66700000D02*
X93950000Y-66700000D01*
X97400000Y-52200000D02*
X93850000Y-52200000D01*
X93850000Y-52200000D02*
X92500000Y-53550000D01*
X93950000Y-81200000D02*
X93900000Y-81150000D01*
X97400000Y-73950000D02*
X93950000Y-73950000D01*
X93100000Y-59400000D02*
X93900000Y-59400000D01*
X99000000Y-97420000D02*
X92500000Y-90920000D01*
X92500000Y-65250000D02*
X92500000Y-60000000D01*
X92500000Y-60000000D02*
X93100000Y-59400000D01*
X97400000Y-81200000D02*
X93950000Y-81200000D01*
X92500000Y-91000000D02*
X89680000Y-93820000D01*
X93950000Y-66700000D02*
X93900000Y-66650000D01*
X93900000Y-73900000D02*
X92500000Y-72500000D01*
X92500000Y-90920000D02*
X92500000Y-90500000D01*
X92500000Y-90500000D02*
X92500000Y-91000000D01*
X97400000Y-59450000D02*
X93950000Y-59450000D01*
X93900000Y-81150000D02*
X92500000Y-79750000D01*
X93950000Y-59450000D02*
X93900000Y-59400000D01*
X92500000Y-53550000D02*
X92500000Y-58000000D01*
X92500000Y-90500000D02*
X92500000Y-82550000D01*
X81000000Y-118000000D02*
X101000000Y-98000000D01*
X101000000Y-94340000D02*
X99000000Y-92340000D01*
X102500000Y-56800000D02*
X102500000Y-64050000D01*
X55500000Y-86100000D02*
X55500000Y-84540000D01*
X102500000Y-78550000D02*
X102500000Y-85800000D01*
X55500000Y-106500000D02*
X55500000Y-86100000D01*
X67000000Y-118000000D02*
X55500000Y-106500000D01*
X64360000Y-93820000D02*
X55500000Y-84960000D01*
X102500000Y-64050000D02*
X102500000Y-71300000D01*
X55500000Y-84960000D02*
X55500000Y-84540000D01*
X67000000Y-118000000D02*
X81000000Y-118000000D01*
X102500000Y-85800000D02*
X102500000Y-88840000D01*
X101000000Y-98000000D02*
X101000000Y-94340000D01*
X102500000Y-71300000D02*
X102500000Y-78550000D01*
X102500000Y-88840000D02*
X99000000Y-92340000D01*
M02*
