M48
; DRILL file KiCad 10.0.0 date 2026-08-14T07:49:58
; FORMAT={-:-/ absolute / metric / decimal}
; #@! TF.CreationDate,2026-08-14T07:49:58+02:00
; #@! TF.GenerationSoftware,Kicad,Pcbnew,10.0.0
; #@! TF.FileFunction,Plated,1,2,PTH
FMAT,2
METRIC
; #@! TA.AperFunction,Plated,PTH,ComponentDrill
T1C0.900
; #@! TA.AperFunction,Plated,PTH,ComponentDrill
T2C1.000
; #@! TA.AperFunction,Plated,PTH,ComponentDrill
T3C1.300
%
G90
G05
T2
X55.5Y-74.38
X55.5Y-76.92
X55.5Y-79.46
X55.5Y-82.0
X55.5Y-84.54
X64.36Y-73.5
X64.36Y-76.04
X64.36Y-78.58
X64.36Y-81.12
X64.36Y-83.66
X64.36Y-86.2
X64.36Y-88.74
X64.36Y-91.28
X64.36Y-93.82
X64.36Y-96.36
X64.36Y-98.9
X64.36Y-101.44
X79.86Y-73.5
X79.86Y-76.04
X79.86Y-78.58
X79.86Y-81.12
X79.86Y-83.66
X79.86Y-86.2
X79.86Y-88.74
X79.86Y-91.28
X79.86Y-93.82
X79.86Y-96.36
X79.86Y-98.9
X79.86Y-101.44
T3
X61.92Y-118.0
X67.0Y-118.0
X99.0Y-92.34
X99.0Y-97.42
X99.0Y-102.5
X99.0Y-107.58
X99.0Y-112.66
X99.0Y-117.74
T1
G00X97.6Y-52.2
M15
G01X97.2Y-52.2
M16
G05
G00X97.6Y-59.45
M15
G01X97.2Y-59.45
M16
G05
G00X97.6Y-66.7
M15
G01X97.2Y-66.7
M16
G05
G00X97.6Y-73.95
M15
G01X97.2Y-73.95
M16
G05
G00X97.6Y-81.2
M15
G01X97.2Y-81.2
M16
G05
G00X98.7Y-56.8
M15
G01X98.3Y-56.8
M16
G05
G00X98.7Y-64.05
M15
G01X98.3Y-64.05
M16
G05
G00X98.7Y-71.3
M15
G01X98.3Y-71.3
M16
G05
G00X98.7Y-78.55
M15
G01X98.3Y-78.55
M16
G05
G00X98.7Y-85.8
M15
G01X98.3Y-85.8
M16
G05
G00X102.7Y-56.8
M15
G01X102.3Y-56.8
M16
G05
G00X102.7Y-64.05
M15
G01X102.3Y-64.05
M16
G05
G00X102.7Y-71.3
M15
G01X102.3Y-71.3
M16
G05
G00X102.7Y-78.55
M15
G01X102.3Y-78.55
M16
G05
G00X102.7Y-85.8
M15
G01X102.3Y-85.8
M16
G05
G00X105.7Y-56.8
M15
G01X105.3Y-56.8
M16
G05
G00X105.7Y-64.05
M15
G01X105.3Y-64.05
M16
G05
G00X105.7Y-71.3
M15
G01X105.3Y-71.3
M16
G05
G00X105.7Y-78.55
M15
G01X105.3Y-78.55
M16
G05
G00X105.7Y-85.8
M15
G01X105.3Y-85.8
M16
G05
M30
