%TF.GenerationSoftware,KiCad,Pcbnew,10.0.0*%
%TF.CreationDate,2026-08-14T08:40:20+02:00*%
%TF.ProjectId,sensor-trrs-adapter-pj320a,73656e73-6f72-42d7-9472-72732d616461,rev?*%
%TF.SameCoordinates,Original*%
%TF.FileFunction,Legend,Top*%
%TF.FilePolarity,Positive*%
%FSLAX46Y46*%
G04 Gerber Fmt 4.6, Leading zero omitted, Abs format (unit mm)*
G04 Created by KiCad (PCBNEW 10.0.0) date 2026-08-14 08:40:20*
%MOMM*%
%LPD*%
G01*
G04 APERTURE LIST*
%ADD10C,0.100000*%
%ADD11C,0.150000*%
%ADD12O,2.000000X1.600000*%
%ADD13C,0.800000*%
%ADD14R,1.700000X1.700000*%
%ADD15C,1.700000*%
G04 APERTURE END LIST*
D10*
X110179014Y-103256265D02*
X110979014Y-103256265D01*
X110674252Y-103256265D02*
X110712348Y-103332455D01*
X110712348Y-103332455D02*
X110712348Y-103484836D01*
X110712348Y-103484836D02*
X110674252Y-103561027D01*
X110674252Y-103561027D02*
X110636157Y-103599122D01*
X110636157Y-103599122D02*
X110559967Y-103637217D01*
X110559967Y-103637217D02*
X110331395Y-103637217D01*
X110331395Y-103637217D02*
X110255205Y-103599122D01*
X110255205Y-103599122D02*
X110217110Y-103561027D01*
X110217110Y-103561027D02*
X110179014Y-103484836D01*
X110179014Y-103484836D02*
X110179014Y-103332455D01*
X110179014Y-103332455D02*
X110217110Y-103256265D01*
X110712348Y-103903884D02*
X110179014Y-104094360D01*
X110712348Y-104284837D02*
X110179014Y-104094360D01*
X110179014Y-104094360D02*
X109988538Y-104018170D01*
X109988538Y-104018170D02*
X109950443Y-103980075D01*
X109950443Y-103980075D02*
X109912348Y-103903884D01*
X110179014Y-105580075D02*
X110179014Y-105199123D01*
X110179014Y-105199123D02*
X110979014Y-105199123D01*
X110179014Y-105846742D02*
X110712348Y-105846742D01*
X110979014Y-105846742D02*
X110940919Y-105808646D01*
X110940919Y-105808646D02*
X110902824Y-105846742D01*
X110902824Y-105846742D02*
X110940919Y-105884837D01*
X110940919Y-105884837D02*
X110979014Y-105846742D01*
X110979014Y-105846742D02*
X110902824Y-105846742D01*
X110712348Y-106227694D02*
X110179014Y-106227694D01*
X110636157Y-106227694D02*
X110674252Y-106265789D01*
X110674252Y-106265789D02*
X110712348Y-106341979D01*
X110712348Y-106341979D02*
X110712348Y-106456265D01*
X110712348Y-106456265D02*
X110674252Y-106532456D01*
X110674252Y-106532456D02*
X110598062Y-106570551D01*
X110598062Y-106570551D02*
X110179014Y-106570551D01*
X110179014Y-107294361D02*
X110598062Y-107294361D01*
X110598062Y-107294361D02*
X110674252Y-107256266D01*
X110674252Y-107256266D02*
X110712348Y-107180075D01*
X110712348Y-107180075D02*
X110712348Y-107027694D01*
X110712348Y-107027694D02*
X110674252Y-106951504D01*
X110217110Y-107294361D02*
X110179014Y-107218170D01*
X110179014Y-107218170D02*
X110179014Y-107027694D01*
X110179014Y-107027694D02*
X110217110Y-106951504D01*
X110217110Y-106951504D02*
X110293300Y-106913408D01*
X110293300Y-106913408D02*
X110369490Y-106913408D01*
X110369490Y-106913408D02*
X110445681Y-106951504D01*
X110445681Y-106951504D02*
X110483776Y-107027694D01*
X110483776Y-107027694D02*
X110483776Y-107218170D01*
X110483776Y-107218170D02*
X110521871Y-107294361D01*
X110179014Y-108665790D02*
X110179014Y-108284838D01*
X110179014Y-108284838D02*
X110979014Y-108284838D01*
X110179014Y-109046742D02*
X110217110Y-108970552D01*
X110217110Y-108970552D02*
X110255205Y-108932457D01*
X110255205Y-108932457D02*
X110331395Y-108894361D01*
X110331395Y-108894361D02*
X110559967Y-108894361D01*
X110559967Y-108894361D02*
X110636157Y-108932457D01*
X110636157Y-108932457D02*
X110674252Y-108970552D01*
X110674252Y-108970552D02*
X110712348Y-109046742D01*
X110712348Y-109046742D02*
X110712348Y-109161028D01*
X110712348Y-109161028D02*
X110674252Y-109237219D01*
X110674252Y-109237219D02*
X110636157Y-109275314D01*
X110636157Y-109275314D02*
X110559967Y-109313409D01*
X110559967Y-109313409D02*
X110331395Y-109313409D01*
X110331395Y-109313409D02*
X110255205Y-109275314D01*
X110255205Y-109275314D02*
X110217110Y-109237219D01*
X110217110Y-109237219D02*
X110179014Y-109161028D01*
X110179014Y-109161028D02*
X110179014Y-109046742D01*
X110712348Y-109656267D02*
X109912348Y-109656267D01*
X110674252Y-109656267D02*
X110712348Y-109732457D01*
X110712348Y-109732457D02*
X110712348Y-109884838D01*
X110712348Y-109884838D02*
X110674252Y-109961029D01*
X110674252Y-109961029D02*
X110636157Y-109999124D01*
X110636157Y-109999124D02*
X110559967Y-110037219D01*
X110559967Y-110037219D02*
X110331395Y-110037219D01*
X110331395Y-110037219D02*
X110255205Y-109999124D01*
X110255205Y-109999124D02*
X110217110Y-109961029D01*
X110217110Y-109961029D02*
X110179014Y-109884838D01*
X110179014Y-109884838D02*
X110179014Y-109732457D01*
X110179014Y-109732457D02*
X110217110Y-109656267D01*
X110217110Y-110684839D02*
X110179014Y-110608648D01*
X110179014Y-110608648D02*
X110179014Y-110456267D01*
X110179014Y-110456267D02*
X110217110Y-110380077D01*
X110217110Y-110380077D02*
X110293300Y-110341981D01*
X110293300Y-110341981D02*
X110598062Y-110341981D01*
X110598062Y-110341981D02*
X110674252Y-110380077D01*
X110674252Y-110380077D02*
X110712348Y-110456267D01*
X110712348Y-110456267D02*
X110712348Y-110608648D01*
X110712348Y-110608648D02*
X110674252Y-110684839D01*
X110674252Y-110684839D02*
X110598062Y-110722934D01*
X110598062Y-110722934D02*
X110521871Y-110722934D01*
X110521871Y-110722934D02*
X110445681Y-110341981D01*
X110217110Y-111027695D02*
X110179014Y-111103886D01*
X110179014Y-111103886D02*
X110179014Y-111256267D01*
X110179014Y-111256267D02*
X110217110Y-111332457D01*
X110217110Y-111332457D02*
X110293300Y-111370553D01*
X110293300Y-111370553D02*
X110331395Y-111370553D01*
X110331395Y-111370553D02*
X110407586Y-111332457D01*
X110407586Y-111332457D02*
X110445681Y-111256267D01*
X110445681Y-111256267D02*
X110445681Y-111141981D01*
X110445681Y-111141981D02*
X110483776Y-111065791D01*
X110483776Y-111065791D02*
X110559967Y-111027695D01*
X110559967Y-111027695D02*
X110598062Y-111027695D01*
X110598062Y-111027695D02*
X110674252Y-111065791D01*
X110674252Y-111065791D02*
X110712348Y-111141981D01*
X110712348Y-111141981D02*
X110712348Y-111256267D01*
X110712348Y-111256267D02*
X110674252Y-111332457D01*
X108929155Y-103218169D02*
X108891059Y-103332455D01*
X108891059Y-103332455D02*
X108891059Y-103522931D01*
X108891059Y-103522931D02*
X108929155Y-103599122D01*
X108929155Y-103599122D02*
X108967250Y-103637217D01*
X108967250Y-103637217D02*
X109043440Y-103675312D01*
X109043440Y-103675312D02*
X109119631Y-103675312D01*
X109119631Y-103675312D02*
X109195821Y-103637217D01*
X109195821Y-103637217D02*
X109233916Y-103599122D01*
X109233916Y-103599122D02*
X109272012Y-103522931D01*
X109272012Y-103522931D02*
X109310107Y-103370550D01*
X109310107Y-103370550D02*
X109348202Y-103294360D01*
X109348202Y-103294360D02*
X109386297Y-103256265D01*
X109386297Y-103256265D02*
X109462488Y-103218169D01*
X109462488Y-103218169D02*
X109538678Y-103218169D01*
X109538678Y-103218169D02*
X109614869Y-103256265D01*
X109614869Y-103256265D02*
X109652964Y-103294360D01*
X109652964Y-103294360D02*
X109691059Y-103370550D01*
X109691059Y-103370550D02*
X109691059Y-103561027D01*
X109691059Y-103561027D02*
X109652964Y-103675312D01*
X108929155Y-104361027D02*
X108891059Y-104284836D01*
X108891059Y-104284836D02*
X108891059Y-104132455D01*
X108891059Y-104132455D02*
X108929155Y-104056265D01*
X108929155Y-104056265D02*
X108967250Y-104018170D01*
X108967250Y-104018170D02*
X109043440Y-103980074D01*
X109043440Y-103980074D02*
X109272012Y-103980074D01*
X109272012Y-103980074D02*
X109348202Y-104018170D01*
X109348202Y-104018170D02*
X109386297Y-104056265D01*
X109386297Y-104056265D02*
X109424393Y-104132455D01*
X109424393Y-104132455D02*
X109424393Y-104284836D01*
X109424393Y-104284836D02*
X109386297Y-104361027D01*
X108891059Y-104703884D02*
X109691059Y-104703884D01*
X108891059Y-105046741D02*
X109310107Y-105046741D01*
X109310107Y-105046741D02*
X109386297Y-105008646D01*
X109386297Y-105008646D02*
X109424393Y-104932455D01*
X109424393Y-104932455D02*
X109424393Y-104818169D01*
X109424393Y-104818169D02*
X109386297Y-104741979D01*
X109386297Y-104741979D02*
X109348202Y-104703884D01*
X108891059Y-105541979D02*
X108929155Y-105465789D01*
X108929155Y-105465789D02*
X108967250Y-105427694D01*
X108967250Y-105427694D02*
X109043440Y-105389598D01*
X109043440Y-105389598D02*
X109272012Y-105389598D01*
X109272012Y-105389598D02*
X109348202Y-105427694D01*
X109348202Y-105427694D02*
X109386297Y-105465789D01*
X109386297Y-105465789D02*
X109424393Y-105541979D01*
X109424393Y-105541979D02*
X109424393Y-105656265D01*
X109424393Y-105656265D02*
X109386297Y-105732456D01*
X109386297Y-105732456D02*
X109348202Y-105770551D01*
X109348202Y-105770551D02*
X109272012Y-105808646D01*
X109272012Y-105808646D02*
X109043440Y-105808646D01*
X109043440Y-105808646D02*
X108967250Y-105770551D01*
X108967250Y-105770551D02*
X108929155Y-105732456D01*
X108929155Y-105732456D02*
X108891059Y-105656265D01*
X108891059Y-105656265D02*
X108891059Y-105541979D01*
X108891059Y-106265789D02*
X108929155Y-106189599D01*
X108929155Y-106189599D02*
X108967250Y-106151504D01*
X108967250Y-106151504D02*
X109043440Y-106113408D01*
X109043440Y-106113408D02*
X109272012Y-106113408D01*
X109272012Y-106113408D02*
X109348202Y-106151504D01*
X109348202Y-106151504D02*
X109386297Y-106189599D01*
X109386297Y-106189599D02*
X109424393Y-106265789D01*
X109424393Y-106265789D02*
X109424393Y-106380075D01*
X109424393Y-106380075D02*
X109386297Y-106456266D01*
X109386297Y-106456266D02*
X109348202Y-106494361D01*
X109348202Y-106494361D02*
X109272012Y-106532456D01*
X109272012Y-106532456D02*
X109043440Y-106532456D01*
X109043440Y-106532456D02*
X108967250Y-106494361D01*
X108967250Y-106494361D02*
X108929155Y-106456266D01*
X108929155Y-106456266D02*
X108891059Y-106380075D01*
X108891059Y-106380075D02*
X108891059Y-106265789D01*
X108891059Y-106989599D02*
X108929155Y-106913409D01*
X108929155Y-106913409D02*
X109005345Y-106875314D01*
X109005345Y-106875314D02*
X109691059Y-106875314D01*
X108891059Y-108018171D02*
X108929155Y-107941981D01*
X108929155Y-107941981D02*
X108967250Y-107903886D01*
X108967250Y-107903886D02*
X109043440Y-107865790D01*
X109043440Y-107865790D02*
X109272012Y-107865790D01*
X109272012Y-107865790D02*
X109348202Y-107903886D01*
X109348202Y-107903886D02*
X109386297Y-107941981D01*
X109386297Y-107941981D02*
X109424393Y-108018171D01*
X109424393Y-108018171D02*
X109424393Y-108132457D01*
X109424393Y-108132457D02*
X109386297Y-108208648D01*
X109386297Y-108208648D02*
X109348202Y-108246743D01*
X109348202Y-108246743D02*
X109272012Y-108284838D01*
X109272012Y-108284838D02*
X109043440Y-108284838D01*
X109043440Y-108284838D02*
X108967250Y-108246743D01*
X108967250Y-108246743D02*
X108929155Y-108208648D01*
X108929155Y-108208648D02*
X108891059Y-108132457D01*
X108891059Y-108132457D02*
X108891059Y-108018171D01*
X109424393Y-108513410D02*
X109424393Y-108818172D01*
X108891059Y-108627696D02*
X109576774Y-108627696D01*
X109576774Y-108627696D02*
X109652964Y-108665791D01*
X109652964Y-108665791D02*
X109691059Y-108741981D01*
X109691059Y-108741981D02*
X109691059Y-108818172D01*
X108403104Y-103141979D02*
X108403104Y-103599122D01*
X107603104Y-103370550D02*
X108403104Y-103370550D01*
X107603104Y-103980074D02*
X107641200Y-103903884D01*
X107641200Y-103903884D02*
X107679295Y-103865789D01*
X107679295Y-103865789D02*
X107755485Y-103827693D01*
X107755485Y-103827693D02*
X107984057Y-103827693D01*
X107984057Y-103827693D02*
X108060247Y-103865789D01*
X108060247Y-103865789D02*
X108098342Y-103903884D01*
X108098342Y-103903884D02*
X108136438Y-103980074D01*
X108136438Y-103980074D02*
X108136438Y-104094360D01*
X108136438Y-104094360D02*
X108098342Y-104170551D01*
X108098342Y-104170551D02*
X108060247Y-104208646D01*
X108060247Y-104208646D02*
X107984057Y-104246741D01*
X107984057Y-104246741D02*
X107755485Y-104246741D01*
X107755485Y-104246741D02*
X107679295Y-104208646D01*
X107679295Y-104208646D02*
X107641200Y-104170551D01*
X107641200Y-104170551D02*
X107603104Y-104094360D01*
X107603104Y-104094360D02*
X107603104Y-103980074D01*
X107603104Y-104589599D02*
X108136438Y-104589599D01*
X108060247Y-104589599D02*
X108098342Y-104627694D01*
X108098342Y-104627694D02*
X108136438Y-104703884D01*
X108136438Y-104703884D02*
X108136438Y-104818170D01*
X108136438Y-104818170D02*
X108098342Y-104894361D01*
X108098342Y-104894361D02*
X108022152Y-104932456D01*
X108022152Y-104932456D02*
X107603104Y-104932456D01*
X108022152Y-104932456D02*
X108098342Y-104970551D01*
X108098342Y-104970551D02*
X108136438Y-105046742D01*
X108136438Y-105046742D02*
X108136438Y-105161027D01*
X108136438Y-105161027D02*
X108098342Y-105237218D01*
X108098342Y-105237218D02*
X108022152Y-105275313D01*
X108022152Y-105275313D02*
X107603104Y-105275313D01*
X107603104Y-105770551D02*
X107641200Y-105694361D01*
X107641200Y-105694361D02*
X107679295Y-105656266D01*
X107679295Y-105656266D02*
X107755485Y-105618170D01*
X107755485Y-105618170D02*
X107984057Y-105618170D01*
X107984057Y-105618170D02*
X108060247Y-105656266D01*
X108060247Y-105656266D02*
X108098342Y-105694361D01*
X108098342Y-105694361D02*
X108136438Y-105770551D01*
X108136438Y-105770551D02*
X108136438Y-105884837D01*
X108136438Y-105884837D02*
X108098342Y-105961028D01*
X108098342Y-105961028D02*
X108060247Y-105999123D01*
X108060247Y-105999123D02*
X107984057Y-106037218D01*
X107984057Y-106037218D02*
X107755485Y-106037218D01*
X107755485Y-106037218D02*
X107679295Y-105999123D01*
X107679295Y-105999123D02*
X107641200Y-105961028D01*
X107641200Y-105961028D02*
X107603104Y-105884837D01*
X107603104Y-105884837D02*
X107603104Y-105770551D01*
X107603104Y-106380076D02*
X108136438Y-106380076D01*
X107984057Y-106380076D02*
X108060247Y-106418171D01*
X108060247Y-106418171D02*
X108098342Y-106456266D01*
X108098342Y-106456266D02*
X108136438Y-106532457D01*
X108136438Y-106532457D02*
X108136438Y-106608647D01*
X107603104Y-106875314D02*
X108136438Y-106875314D01*
X107984057Y-106875314D02*
X108060247Y-106913409D01*
X108060247Y-106913409D02*
X108098342Y-106951504D01*
X108098342Y-106951504D02*
X108136438Y-107027695D01*
X108136438Y-107027695D02*
X108136438Y-107103885D01*
X107603104Y-107484837D02*
X107641200Y-107408647D01*
X107641200Y-107408647D02*
X107679295Y-107370552D01*
X107679295Y-107370552D02*
X107755485Y-107332456D01*
X107755485Y-107332456D02*
X107984057Y-107332456D01*
X107984057Y-107332456D02*
X108060247Y-107370552D01*
X108060247Y-107370552D02*
X108098342Y-107408647D01*
X108098342Y-107408647D02*
X108136438Y-107484837D01*
X108136438Y-107484837D02*
X108136438Y-107599123D01*
X108136438Y-107599123D02*
X108098342Y-107675314D01*
X108098342Y-107675314D02*
X108060247Y-107713409D01*
X108060247Y-107713409D02*
X107984057Y-107751504D01*
X107984057Y-107751504D02*
X107755485Y-107751504D01*
X107755485Y-107751504D02*
X107679295Y-107713409D01*
X107679295Y-107713409D02*
X107641200Y-107675314D01*
X107641200Y-107675314D02*
X107603104Y-107599123D01*
X107603104Y-107599123D02*
X107603104Y-107484837D01*
X108136438Y-108018171D02*
X107603104Y-108170552D01*
X107603104Y-108170552D02*
X107984057Y-108322933D01*
X107984057Y-108322933D02*
X107603104Y-108475314D01*
X107603104Y-108475314D02*
X108136438Y-108627695D01*
X108403104Y-108970552D02*
X108250723Y-108894361D01*
X107641200Y-109275313D02*
X107603104Y-109351504D01*
X107603104Y-109351504D02*
X107603104Y-109503885D01*
X107603104Y-109503885D02*
X107641200Y-109580075D01*
X107641200Y-109580075D02*
X107717390Y-109618171D01*
X107717390Y-109618171D02*
X107755485Y-109618171D01*
X107755485Y-109618171D02*
X107831676Y-109580075D01*
X107831676Y-109580075D02*
X107869771Y-109503885D01*
X107869771Y-109503885D02*
X107869771Y-109389599D01*
X107869771Y-109389599D02*
X107907866Y-109313409D01*
X107907866Y-109313409D02*
X107984057Y-109275313D01*
X107984057Y-109275313D02*
X108022152Y-109275313D01*
X108022152Y-109275313D02*
X108098342Y-109313409D01*
X108098342Y-109313409D02*
X108136438Y-109389599D01*
X108136438Y-109389599D02*
X108136438Y-109503885D01*
X108136438Y-109503885D02*
X108098342Y-109580075D01*
X107831676Y-110532456D02*
X107831676Y-110913409D01*
X107603104Y-110456266D02*
X108403104Y-110722933D01*
X108403104Y-110722933D02*
X107603104Y-110989599D01*
X107603104Y-111256266D02*
X108403104Y-111256266D01*
X115237524Y-102161027D02*
X115237524Y-102732455D01*
X114237524Y-102446741D02*
X115237524Y-102446741D01*
X114237524Y-103637217D02*
X114713715Y-103303884D01*
X114237524Y-103065789D02*
X115237524Y-103065789D01*
X115237524Y-103065789D02*
X115237524Y-103446741D01*
X115237524Y-103446741D02*
X115189905Y-103541979D01*
X115189905Y-103541979D02*
X115142286Y-103589598D01*
X115142286Y-103589598D02*
X115047048Y-103637217D01*
X115047048Y-103637217D02*
X114904191Y-103637217D01*
X114904191Y-103637217D02*
X114808953Y-103589598D01*
X114808953Y-103589598D02*
X114761334Y-103541979D01*
X114761334Y-103541979D02*
X114713715Y-103446741D01*
X114713715Y-103446741D02*
X114713715Y-103065789D01*
X114237524Y-104637217D02*
X114713715Y-104303884D01*
X114237524Y-104065789D02*
X115237524Y-104065789D01*
X115237524Y-104065789D02*
X115237524Y-104446741D01*
X115237524Y-104446741D02*
X115189905Y-104541979D01*
X115189905Y-104541979D02*
X115142286Y-104589598D01*
X115142286Y-104589598D02*
X115047048Y-104637217D01*
X115047048Y-104637217D02*
X114904191Y-104637217D01*
X114904191Y-104637217D02*
X114808953Y-104589598D01*
X114808953Y-104589598D02*
X114761334Y-104541979D01*
X114761334Y-104541979D02*
X114713715Y-104446741D01*
X114713715Y-104446741D02*
X114713715Y-104065789D01*
X114285144Y-105018170D02*
X114237524Y-105161027D01*
X114237524Y-105161027D02*
X114237524Y-105399122D01*
X114237524Y-105399122D02*
X114285144Y-105494360D01*
X114285144Y-105494360D02*
X114332763Y-105541979D01*
X114332763Y-105541979D02*
X114428001Y-105589598D01*
X114428001Y-105589598D02*
X114523239Y-105589598D01*
X114523239Y-105589598D02*
X114618477Y-105541979D01*
X114618477Y-105541979D02*
X114666096Y-105494360D01*
X114666096Y-105494360D02*
X114713715Y-105399122D01*
X114713715Y-105399122D02*
X114761334Y-105208646D01*
X114761334Y-105208646D02*
X114808953Y-105113408D01*
X114808953Y-105113408D02*
X114856572Y-105065789D01*
X114856572Y-105065789D02*
X114951810Y-105018170D01*
X114951810Y-105018170D02*
X115047048Y-105018170D01*
X115047048Y-105018170D02*
X115142286Y-105065789D01*
X115142286Y-105065789D02*
X115189905Y-105113408D01*
X115189905Y-105113408D02*
X115237524Y-105208646D01*
X115237524Y-105208646D02*
X115237524Y-105446741D01*
X115237524Y-105446741D02*
X115189905Y-105589598D01*
X114237524Y-106780075D02*
X115237524Y-106780075D01*
X115237524Y-106780075D02*
X115237524Y-107161027D01*
X115237524Y-107161027D02*
X115189905Y-107256265D01*
X115189905Y-107256265D02*
X115142286Y-107303884D01*
X115142286Y-107303884D02*
X115047048Y-107351503D01*
X115047048Y-107351503D02*
X114904191Y-107351503D01*
X114904191Y-107351503D02*
X114808953Y-107303884D01*
X114808953Y-107303884D02*
X114761334Y-107256265D01*
X114761334Y-107256265D02*
X114713715Y-107161027D01*
X114713715Y-107161027D02*
X114713715Y-106780075D01*
X115237524Y-108065789D02*
X114523239Y-108065789D01*
X114523239Y-108065789D02*
X114380382Y-108018170D01*
X114380382Y-108018170D02*
X114285144Y-107922932D01*
X114285144Y-107922932D02*
X114237524Y-107780075D01*
X114237524Y-107780075D02*
X114237524Y-107684837D01*
X114618477Y-108541980D02*
X114618477Y-109303885D01*
X115237524Y-109684837D02*
X115237524Y-110303884D01*
X115237524Y-110303884D02*
X114856572Y-109970551D01*
X114856572Y-109970551D02*
X114856572Y-110113408D01*
X114856572Y-110113408D02*
X114808953Y-110208646D01*
X114808953Y-110208646D02*
X114761334Y-110256265D01*
X114761334Y-110256265D02*
X114666096Y-110303884D01*
X114666096Y-110303884D02*
X114428001Y-110303884D01*
X114428001Y-110303884D02*
X114332763Y-110256265D01*
X114332763Y-110256265D02*
X114285144Y-110208646D01*
X114285144Y-110208646D02*
X114237524Y-110113408D01*
X114237524Y-110113408D02*
X114237524Y-109827694D01*
X114237524Y-109827694D02*
X114285144Y-109732456D01*
X114285144Y-109732456D02*
X114332763Y-109684837D01*
X115142286Y-110684837D02*
X115189905Y-110732456D01*
X115189905Y-110732456D02*
X115237524Y-110827694D01*
X115237524Y-110827694D02*
X115237524Y-111065789D01*
X115237524Y-111065789D02*
X115189905Y-111161027D01*
X115189905Y-111161027D02*
X115142286Y-111208646D01*
X115142286Y-111208646D02*
X115047048Y-111256265D01*
X115047048Y-111256265D02*
X114951810Y-111256265D01*
X114951810Y-111256265D02*
X114808953Y-111208646D01*
X114808953Y-111208646D02*
X114237524Y-110637218D01*
X114237524Y-110637218D02*
X114237524Y-111256265D01*
X115237524Y-111875313D02*
X115237524Y-111970551D01*
X115237524Y-111970551D02*
X115189905Y-112065789D01*
X115189905Y-112065789D02*
X115142286Y-112113408D01*
X115142286Y-112113408D02*
X115047048Y-112161027D01*
X115047048Y-112161027D02*
X114856572Y-112208646D01*
X114856572Y-112208646D02*
X114618477Y-112208646D01*
X114618477Y-112208646D02*
X114428001Y-112161027D01*
X114428001Y-112161027D02*
X114332763Y-112113408D01*
X114332763Y-112113408D02*
X114285144Y-112065789D01*
X114285144Y-112065789D02*
X114237524Y-111970551D01*
X114237524Y-111970551D02*
X114237524Y-111875313D01*
X114237524Y-111875313D02*
X114285144Y-111780075D01*
X114285144Y-111780075D02*
X114332763Y-111732456D01*
X114332763Y-111732456D02*
X114428001Y-111684837D01*
X114428001Y-111684837D02*
X114618477Y-111637218D01*
X114618477Y-111637218D02*
X114856572Y-111637218D01*
X114856572Y-111637218D02*
X115047048Y-111684837D01*
X115047048Y-111684837D02*
X115142286Y-111732456D01*
X115142286Y-111732456D02*
X115189905Y-111780075D01*
X115189905Y-111780075D02*
X115237524Y-111875313D01*
X114523239Y-112589599D02*
X114523239Y-113065789D01*
X114237524Y-112494361D02*
X115237524Y-112827694D01*
X115237524Y-112827694D02*
X114237524Y-113161027D01*
X112627580Y-102827693D02*
X112627580Y-102256265D01*
X112627580Y-102541979D02*
X113627580Y-102541979D01*
X113627580Y-102541979D02*
X113484723Y-102446741D01*
X113484723Y-102446741D02*
X113389485Y-102351503D01*
X113389485Y-102351503D02*
X113341866Y-102256265D01*
X113294247Y-103351503D02*
X112722819Y-103922931D01*
X113294247Y-103922931D02*
X112722819Y-103351503D01*
X113294247Y-104922931D02*
X112627580Y-104922931D01*
X113675200Y-104684836D02*
X112960914Y-104446741D01*
X112960914Y-104446741D02*
X112960914Y-105065788D01*
X112913295Y-106161027D02*
X112913295Y-106637217D01*
X112627580Y-106065789D02*
X113627580Y-106399122D01*
X113627580Y-106399122D02*
X112627580Y-106732455D01*
X112627580Y-107065789D02*
X113627580Y-107065789D01*
X113627580Y-107065789D02*
X113627580Y-107303884D01*
X113627580Y-107303884D02*
X113579961Y-107446741D01*
X113579961Y-107446741D02*
X113484723Y-107541979D01*
X113484723Y-107541979D02*
X113389485Y-107589598D01*
X113389485Y-107589598D02*
X113199009Y-107637217D01*
X113199009Y-107637217D02*
X113056152Y-107637217D01*
X113056152Y-107637217D02*
X112865676Y-107589598D01*
X112865676Y-107589598D02*
X112770438Y-107541979D01*
X112770438Y-107541979D02*
X112675200Y-107446741D01*
X112675200Y-107446741D02*
X112627580Y-107303884D01*
X112627580Y-107303884D02*
X112627580Y-107065789D01*
X112913295Y-108018170D02*
X112913295Y-108494360D01*
X112627580Y-107922932D02*
X113627580Y-108256265D01*
X113627580Y-108256265D02*
X112627580Y-108589598D01*
X112627580Y-108922932D02*
X113627580Y-108922932D01*
X113627580Y-108922932D02*
X113627580Y-109303884D01*
X113627580Y-109303884D02*
X113579961Y-109399122D01*
X113579961Y-109399122D02*
X113532342Y-109446741D01*
X113532342Y-109446741D02*
X113437104Y-109494360D01*
X113437104Y-109494360D02*
X113294247Y-109494360D01*
X113294247Y-109494360D02*
X113199009Y-109446741D01*
X113199009Y-109446741D02*
X113151390Y-109399122D01*
X113151390Y-109399122D02*
X113103771Y-109303884D01*
X113103771Y-109303884D02*
X113103771Y-108922932D01*
X113627580Y-109780075D02*
X113627580Y-110351503D01*
X112627580Y-110065789D02*
X113627580Y-110065789D01*
X113151390Y-110684837D02*
X113151390Y-111018170D01*
X112627580Y-111161027D02*
X112627580Y-110684837D01*
X112627580Y-110684837D02*
X113627580Y-110684837D01*
X113627580Y-110684837D02*
X113627580Y-111161027D01*
X112627580Y-112161027D02*
X113103771Y-111827694D01*
X112627580Y-111589599D02*
X113627580Y-111589599D01*
X113627580Y-111589599D02*
X113627580Y-111970551D01*
X113627580Y-111970551D02*
X113579961Y-112065789D01*
X113579961Y-112065789D02*
X113532342Y-112113408D01*
X113532342Y-112113408D02*
X113437104Y-112161027D01*
X113437104Y-112161027D02*
X113294247Y-112161027D01*
X113294247Y-112161027D02*
X113199009Y-112113408D01*
X113199009Y-112113408D02*
X113151390Y-112065789D01*
X113151390Y-112065789D02*
X113103771Y-111970551D01*
X113103771Y-111970551D02*
X113103771Y-111589599D01*
%TO.C,J3*%
D11*
X93900000Y-104450000D02*
X93900000Y-110550000D01*
X106000000Y-104450000D02*
X106000000Y-110550000D01*
X93900000Y-104450000D02*
X106000000Y-104450000D01*
X93900000Y-110550000D02*
X106000000Y-110550000D01*
X93900000Y-104700000D02*
X91900000Y-104700000D01*
X93900000Y-110300000D02*
X91900000Y-110300000D01*
X91900000Y-104700000D02*
X91900000Y-110300000D01*
%TD*%
%LPC*%
D12*
%TO.C,J3*%
X105200000Y-109800000D03*
X104100000Y-105200000D03*
X97100000Y-105200000D03*
D13*
X102500000Y-107500000D03*
X95500000Y-107500000D03*
D12*
X100100000Y-105200000D03*
%TD*%
D14*
%TO.C,J1*%
X117000000Y-111000000D03*
D15*
X117000000Y-108460000D03*
X117000000Y-105920000D03*
X117000000Y-103380000D03*
%TD*%
%LPD*%
M02*
